<svg width="1405" height="600" viewBox="0 0 1405 600" fill="none" xmlns="http://www.w3.org/2000/svg">
<rect x="2.5" y="2.50085" width="595" height="595" rx="67.5" fill="white" stroke="#959B9B" stroke-width="5"/>
<path d="M530 0.000854492C568.66 0.000857069 600 31.3409 600 70.0009V264.001L597.212 263.993C479.398 263.363 386.859 222.905 297.918 192.619C208.987 162.336 119.749 140.246 0 167.045V70.0009C2.57738e-06 31.3409 31.3401 0.000854653 70 0.000854492H530Z" fill="#084674"/>
<path d="M0 359.96C129.788 332.302 227.73 357.197 319.035 388.288C411.734 419.854 493.796 455.872 600 456.974V530.001C600 568.661 568.66 600.001 530 600.001H70C31.3402 600.001 0.000132122 568.661 0 530.001V503.96C0.0550196 503.948 0.110031 503.937 0.165039 503.925L0 503.214V359.96Z" fill="#DFB367"/>
<path d="M0 278.96C129.788 251.302 227.73 276.197 319.035 307.288C411.734 338.854 493.796 374.872 600 375.974V425.975C483.239 424.854 391.301 384.716 302.918 354.619C212.915 323.971 122.597 301.713 0.655273 330.034L0 327.212V278.96ZM0 197.96C129.788 170.302 227.73 195.197 319.035 226.288C411.734 257.854 493.796 293.872 600 294.974V344.975C483.239 343.854 391.301 303.716 302.918 273.619C212.915 242.971 122.597 220.713 0.655273 249.034L0 246.212V197.96Z" fill="#DFB367"/>
<line x1="443" y1="600.001" x2="443" stroke="#1EB3B2" stroke-width="12"/>
<circle cx="443" cy="414.001" r="21" fill="#1EB3B2"/>
<circle cx="443" cy="253.001" r="21" fill="#1EB3B2"/>
<circle cx="443" cy="334.001" r="21" fill="#1EB3B2"/>
<line x1="352" y1="600.002" x2="352" y2="0.000854492" stroke="#1EB3B2" stroke-width="12"/>
<circle cx="352" cy="384.001" r="21" fill="#1EB3B2"/>
<circle cx="352" cy="223.001" r="21" fill="#1EB3B2"/>
<circle cx="352" cy="304.001" r="21" fill="#1EB3B2"/>
<rect x="7.5" y="7.50085" width="585" height="585" rx="62.5" stroke="white" stroke-width="15"/>
<path d="M720.88 367.521C710.56 367.521 700.6 366.261 691 363.741C681.52 361.101 673.78 357.741 667.78 353.661L679.48 327.381C685.12 330.981 691.6 333.981 698.92 336.381C706.36 338.661 713.74 339.801 721.06 339.801C725.98 339.801 729.94 339.381 732.94 338.541C735.94 337.581 738.1 336.381 739.42 334.941C740.86 333.381 741.58 331.581 741.58 329.541C741.58 326.661 740.26 324.381 737.62 322.701C734.98 321.021 731.56 319.641 727.36 318.561C723.16 317.481 718.48 316.401 713.32 315.321C708.28 314.241 703.18 312.861 698.02 311.181C692.98 309.501 688.36 307.341 684.16 304.701C679.96 301.941 676.54 298.401 673.9 294.081C671.26 289.641 669.94 284.061 669.94 277.341C669.94 269.781 671.98 262.941 676.06 256.821C680.26 250.701 686.5 245.781 694.78 242.061C703.06 238.341 713.38 236.481 725.74 236.481C734.02 236.481 742.12 237.441 750.04 239.361C758.08 241.161 765.22 243.861 771.46 247.461L760.48 273.921C754.48 270.681 748.54 268.281 742.66 266.721C736.78 265.041 731.08 264.201 725.56 264.201C720.64 264.201 716.68 264.741 713.68 265.821C710.68 266.781 708.52 268.101 707.2 269.781C705.88 271.461 705.22 273.381 705.22 275.541C705.22 278.301 706.48 280.521 709 282.201C711.64 283.761 715.06 285.081 719.26 286.161C723.58 287.121 728.26 288.141 733.3 289.221C738.46 290.301 743.56 291.681 748.6 293.361C753.76 294.921 758.44 297.081 762.64 299.841C766.84 302.481 770.2 306.021 772.72 310.461C775.36 314.781 776.68 320.241 776.68 326.841C776.68 334.161 774.58 340.941 770.38 347.181C766.3 353.301 760.12 358.221 751.84 361.941C743.68 365.661 733.36 367.521 720.88 367.521ZM825.903 287.781H884.403V314.421H825.903V287.781ZM828.423 337.461H894.303V365.001H793.143V239.001H891.963V266.541H828.423V337.461ZM898.96 365.001L954.58 239.001H989.68L1045.48 365.001H1008.4L964.84 256.461H978.88L935.32 365.001H898.96ZM929.38 340.521L938.56 314.241H1000.12L1009.3 340.521H929.38Z" fill="#084674"/>
<path d="M1089.08 365.001V247.281H1043.72V239.001H1143.62V247.281H1098.26V365.001H1089.08ZM1190.38 365.721C1181.38 365.721 1173.34 363.681 1166.26 359.601C1159.3 355.521 1153.72 349.881 1149.52 342.681C1145.44 335.481 1143.4 327.261 1143.4 318.021C1143.4 308.661 1145.44 300.441 1149.52 293.361C1153.72 286.161 1159.3 280.521 1166.26 276.441C1173.34 272.361 1181.38 270.321 1190.38 270.321C1199.38 270.321 1207.42 272.361 1214.5 276.441C1221.58 280.521 1227.16 286.161 1231.24 293.361C1235.32 300.441 1237.36 308.661 1237.36 318.021C1237.36 327.261 1235.32 335.481 1231.24 342.681C1227.16 349.881 1221.58 355.521 1214.5 359.601C1207.42 363.681 1199.38 365.721 1190.38 365.721ZM1190.38 357.621C1197.58 357.621 1204.06 356.001 1209.82 352.761C1215.58 349.401 1220.08 344.721 1223.32 338.721C1226.56 332.721 1228.18 325.821 1228.18 318.021C1228.18 310.101 1226.56 303.201 1223.32 297.321C1220.08 291.321 1215.58 286.701 1209.82 283.461C1204.06 280.101 1197.58 278.421 1190.38 278.421C1183.18 278.421 1176.7 280.101 1170.94 283.461C1165.3 286.701 1160.8 291.321 1157.44 297.321C1154.2 303.201 1152.58 310.101 1152.58 318.021C1152.58 325.821 1154.2 332.721 1157.44 338.721C1160.8 344.721 1165.3 349.401 1170.94 352.761C1176.7 356.001 1183.18 357.621 1190.38 357.621ZM1302 365.721C1293 365.721 1284.96 363.681 1277.88 359.601C1270.92 355.521 1265.34 349.881 1261.14 342.681C1257.06 335.481 1255.02 327.261 1255.02 318.021C1255.02 308.661 1257.06 300.441 1261.14 293.361C1265.34 286.161 1270.92 280.521 1277.88 276.441C1284.96 272.361 1293 270.321 1302 270.321C1311 270.321 1319.04 272.361 1326.12 276.441C1333.2 280.521 1338.78 286.161 1342.86 293.361C1346.94 300.441 1348.98 308.661 1348.98 318.021C1348.98 327.261 1346.94 335.481 1342.86 342.681C1338.78 349.881 1333.2 355.521 1326.12 359.601C1319.04 363.681 1311 365.721 1302 365.721ZM1302 357.621C1309.2 357.621 1315.68 356.001 1321.44 352.761C1327.2 349.401 1331.7 344.721 1334.94 338.721C1338.18 332.721 1339.8 325.821 1339.8 318.021C1339.8 310.101 1338.18 303.201 1334.94 297.321C1331.7 291.321 1327.2 286.701 1321.44 283.461C1315.68 280.101 1309.2 278.421 1302 278.421C1294.8 278.421 1288.32 280.101 1282.56 283.461C1276.92 286.701 1272.42 291.321 1269.06 297.321C1265.82 303.201 1264.2 310.101 1264.2 318.021C1264.2 325.821 1265.82 332.721 1269.06 338.721C1272.42 344.721 1276.92 349.401 1282.56 352.761C1288.32 356.001 1294.8 357.621 1302 357.621ZM1376.9 365.001V231.441H1385.9V365.001H1376.9Z" fill="#084674"/>
</svg>
